<svg focusable="false" xmlns="http://www.w3.org/2000/svg" viewBox="0 0 30 30"><path class="icon__border" d="M15 .5A14.5 14.5 0 1 1 .5 15 14.516 14.516 0 0 1 15 .5m0-.5a15 15 0 1 0 15 15A15 15 0 0 0 15 0z" fill="white"></path><path d="M10.527 19.604v2.122h-1.55l-.882-.208-.618-.619a7.885 7.885 0 0 0-.157-.886 2.94 2.94 0 0 1 .111-.752l.483-.634.781-.254h.813l.49.436z" fill="white" opacity=".2"></path><g fill="white" stroke="currentColor" stroke-linecap="round" stroke-linejoin="round" stroke-width=".4"><path d="M10.679 10.03h11.584a.459.459 0 0 1 .458.459V20.98a.618.618 0 0 1-.618.618H8.918M7.299 19.32v-8.831"></path><path d="M8.918 21.599a1.619 1.619 0 0 1-1.619-1.62v-9.896a1.619 1.619 0 0 1 1.62-1.619 1.619 1.619 0 0 1 1.618 1.62v9.896m.021-.095a1.64 1.64 0 0 0-3.28 0m3.28-8.299h.15"></path><path stroke-dasharray="0.2747 1.8313" d="M12.539 11.586h7.509"></path><path d="M20.963 11.586h.15v.15"></path><path stroke-dasharray="0.16221 1.0814" d="M21.113 12.818v.702"></path><path d="M21.113 14.061v.15h-.15"></path><path stroke-dasharray="0.27553 1.83686" d="M19.126 14.211h-7.531"></path><path d="M10.677 14.211h-.15m.031 1.386h1.89v2.649h-1.89m7.712-2.649h2.844v2.649H18.27zm-1.489 2.499v.15h-.15"></path><path stroke-dasharray="0.17747 1.18314" d="M15.447 18.246h-.769"></path><path d="M14.087 18.246h-.15v-.15"></path><path stroke-dasharray="0.16389 1.09263" d="M13.937 17.003v-.71"></path><path d="M13.937 15.747v-.15h.15"></path><path stroke-dasharray="0.17747 1.18314" d="M15.27 15.597h.769"></path><path d="M16.631 15.597h.15v.15"></path><path stroke-dasharray="0.16389 1.09263" d="M16.781 16.839v.71"></path><path d="M18.27 19.206h2.843m-2.843.96h.787m.885 0h.515m-6.52-.96h2.844m-2.844.96h.788m.884 0h.516m-5.598-.96h1.921m-1.172.96h.516m7.31-2.696l1.146-1.067m-1.107-.04l1.068 1.146m-9.682-.039l1.146-1.067m-1.106-.04l1.067 1.146"></path></g></svg>